# xmcd
#
# Track frame offsets: 
#        150
#        16467
#        30856
#        44502
#        53601
#        66140
#        84677
#        120510
#        148855
#
# Disc length: 2233 seconds
#
# Revision: 4
# Processed by: cddbd v1.5.2PL0 Copyright (c) Steve Scherf et al.
# Submitted via: ExactAudioCopyFreeDBPlugin 1.0
#
DISCID=7208b709
DTITLE=Breakout - Blues
DYEAR=1971
DGENRE=Blues
TTITLE0=Ona poszła inną drogą
TTITLE1=Kiedy byłem małym chłopcem
TTITLE2=Oni zaraz przyjdą tu
TTITLE3=Przyszła do mnie bieda
TTITLE4=Pomaluj moje sny
TTITLE5=Usta me ogrzej
TTITLE6=Gdybym był wichrem
TTITLE7=Co sie stało kwiatom
TTITLE8=Dzisiejszej nocy
EXTD=
EXTT0=
EXTT1=
EXTT2=
EXTT3=
EXTT4=
EXTT5=
EXTT6=
EXTT7=
EXTT8=
PLAYORDER=
